<svg xmlns="http://www.w3.org/2000/svg" xmlns:xlink="http://www.w3.org/1999/xlink" width="240" zoomAndPan="magnify" viewBox="0 0 180 74.999997" height="100" preserveAspectRatio="xMidYMid meet" version="1.0"><defs><g/><clipPath id="2e112e598c"><path d="M 80.886719 16 L 98.886719 16 L 98.886719 40 L 80.886719 40 Z M 80.886719 16 " clip-rule="nonzero"/></clipPath><clipPath id="36684ebf1c"><path d="M 86 29 L 98.886719 29 L 98.886719 38 L 86 38 Z M 86 29 " clip-rule="nonzero"/></clipPath><clipPath id="6a96012b2a"><path d="M 86 34 L 98.886719 34 L 98.886719 43 L 86 43 Z M 86 34 " clip-rule="nonzero"/></clipPath></defs><rect x="-18" width="216" fill="#ffffff" y="-7.5" height="89.999996" fill-opacity="1"/><rect x="-18" width="216" fill="#000000" y="-7.5" height="89.999996" fill-opacity="1"/><g clip-path="url(#2e112e598c)"><path fill="#ffcf00" d="M 82.355469 39.046875 L 83.671875 39.726562 L 83.671875 23.273438 L 90.117188 19.703125 L 91.363281 20.40625 L 96.328125 23.191406 L 96.328125 24.488281 L 95.300781 25.03125 L 91.21875 27.210938 L 89.992188 27.863281 L 88.167969 26.921875 L 87.308594 26.492188 L 86.179688 25.90625 L 86.179688 29.035156 L 87.359375 29.636719 L 90.007812 31.011719 L 91.246094 30.351562 L 95.265625 28.203125 L 98.183594 26.652344 L 99.109375 26.160156 L 99.109375 21.554688 L 91.375 17.21875 L 90.125 16.523438 L 80.886719 21.636719 L 80.886719 38.292969 L 82.347656 39.046875 Z M 82.355469 39.046875 " fill-opacity="1" fill-rule="nonzero"/></g><g clip-path="url(#36684ebf1c)"><path fill="#ffcf00" d="M 99.109375 29.085938 L 97.949219 29.707031 L 90.339844 33.769531 L 89.992188 33.957031 L 88.539062 33.210938 L 86.179688 31.988281 L 86.179688 35.117188 L 90.007812 37.09375 L 90.355469 36.90625 L 99.109375 32.242188 Z M 99.109375 29.085938 " fill-opacity="1" fill-rule="nonzero"/></g><g clip-path="url(#6a96012b2a)"><path fill="#ffcf00" d="M 86.179688 37.890625 L 86.179688 41.023438 L 90.007812 43 L 99.109375 38.148438 L 99.109375 34.992188 L 89.992188 39.859375 Z M 86.179688 37.890625 " fill-opacity="1" fill-rule="nonzero"/></g><g fill="#ffffff" fill-opacity="1"><g transform="translate(65.435309, 53.594995)"><g><path d="M 0.453125 0 L 0.453125 -5.8125 L 4.53125 -5.8125 L 4.53125 -4.703125 L 1.796875 -4.703125 L 1.796875 -3.46875 L 4.203125 -3.46875 L 4.203125 -2.484375 L 1.796875 -2.484375 L 1.796875 -1.125 L 4.609375 -1.125 L 4.609375 0 Z M 0.453125 0 "/></g></g></g><g fill="#ffffff" fill-opacity="1"><g transform="translate(70.89199, 53.594995)"><g><path d="M 0.453125 0 L 0.453125 -5.8125 L 2.078125 -5.8125 L 4.4375 -1.671875 L 4.46875 -1.671875 L 4.46875 -5.8125 L 5.78125 -5.8125 L 5.78125 0 L 4.140625 0 L 1.78125 -4.125 L 1.765625 -4.125 L 1.765625 0 Z M 0.453125 0 "/></g></g></g><g fill="#ffffff" fill-opacity="1"><g transform="translate(77.78417, 53.594995)"><g><path d="M 2.15625 0 L 0.046875 -5.8125 L 1.5 -5.8125 L 2.953125 -1.234375 L 2.984375 -1.234375 L 4.4375 -5.8125 L 5.890625 -5.8125 L 3.765625 0 Z M 2.15625 0 "/></g></g></g><g fill="#ffffff" fill-opacity="1"><g transform="translate(84.374569, 53.594995)"><g><path d="M 2.078125 0 L 2.078125 -2.046875 L 0.046875 -5.8125 L 1.515625 -5.8125 L 2.765625 -3.265625 L 2.796875 -3.265625 L 3.984375 -5.8125 L 5.46875 -5.8125 L 3.46875 -2.046875 L 3.46875 0 Z M 2.078125 0 "/></g></g></g><g fill="#ffffff" fill-opacity="1"><g transform="translate(90.549, 53.594995)"><g><path d="M 0.453125 0 L 0.453125 -5.8125 L 3.40625 -5.8125 C 4.050781 -5.8125 4.550781 -5.671875 4.90625 -5.390625 C 5.257812 -5.117188 5.4375 -4.726562 5.4375 -4.21875 C 5.4375 -3.90625 5.347656 -3.640625 5.171875 -3.421875 C 5.003906 -3.203125 4.765625 -3.054688 4.453125 -2.984375 L 4.453125 -2.96875 C 4.804688 -2.894531 5.078125 -2.742188 5.265625 -2.515625 C 5.460938 -2.285156 5.5625 -1.984375 5.5625 -1.609375 C 5.5625 -1.097656 5.378906 -0.703125 5.015625 -0.421875 C 4.660156 -0.140625 4.148438 0 3.484375 0 Z M 1.84375 -3.40625 L 3.1875 -3.40625 C 3.457031 -3.40625 3.664062 -3.460938 3.8125 -3.578125 C 3.96875 -3.703125 4.046875 -3.878906 4.046875 -4.109375 C 4.046875 -4.316406 3.96875 -4.476562 3.8125 -4.59375 C 3.664062 -4.71875 3.457031 -4.78125 3.1875 -4.78125 L 1.84375 -4.78125 Z M 1.84375 -1.03125 L 3.234375 -1.03125 C 3.535156 -1.03125 3.765625 -1.09375 3.921875 -1.21875 C 4.085938 -1.34375 4.171875 -1.519531 4.171875 -1.75 C 4.171875 -2 4.085938 -2.1875 3.921875 -2.3125 C 3.765625 -2.445312 3.535156 -2.515625 3.234375 -2.515625 L 1.84375 -2.515625 Z M 1.84375 -1.03125 "/></g></g></g><g fill="#ffffff" fill-opacity="1"><g transform="translate(96.976276, 53.594995)"><g><path d="M 0.046875 0 L 2.140625 -5.8125 L 3.84375 -5.8125 L 5.953125 0 L 4.484375 0 L 4.109375 -1.140625 L 1.875 -1.140625 L 1.5 0 Z M 2.125 -2.125 L 3.859375 -2.125 L 3 -4.703125 L 2.984375 -4.703125 Z M 2.125 -2.125 "/></g></g></g><g fill="#ffffff" fill-opacity="1"><g transform="translate(103.623769, 53.594995)"><g><path d="M 2.828125 0.203125 C 2.347656 0.203125 1.914062 0.128906 1.53125 -0.015625 C 1.144531 -0.171875 0.832031 -0.394531 0.59375 -0.6875 C 0.363281 -0.976562 0.222656 -1.332031 0.171875 -1.75 L 1.453125 -1.984375 C 1.492188 -1.628906 1.644531 -1.347656 1.90625 -1.140625 C 2.164062 -0.929688 2.488281 -0.828125 2.875 -0.828125 C 3.226562 -0.828125 3.503906 -0.898438 3.703125 -1.046875 C 3.898438 -1.191406 4 -1.375 4 -1.59375 C 4 -1.78125 3.921875 -1.925781 3.765625 -2.03125 C 3.617188 -2.144531 3.375 -2.238281 3.03125 -2.3125 L 2.234375 -2.46875 C 1.585938 -2.59375 1.113281 -2.785156 0.8125 -3.046875 C 0.519531 -3.316406 0.375 -3.679688 0.375 -4.140625 C 0.375 -4.515625 0.472656 -4.84375 0.671875 -5.125 C 0.867188 -5.40625 1.140625 -5.625 1.484375 -5.78125 C 1.835938 -5.9375 2.238281 -6.015625 2.6875 -6.015625 C 3.09375 -6.015625 3.460938 -5.941406 3.796875 -5.796875 C 4.128906 -5.660156 4.398438 -5.46875 4.609375 -5.21875 C 4.816406 -4.96875 4.941406 -4.675781 4.984375 -4.34375 L 3.75 -4.0625 C 3.707031 -4.34375 3.585938 -4.566406 3.390625 -4.734375 C 3.191406 -4.898438 2.953125 -4.984375 2.671875 -4.984375 C 2.390625 -4.984375 2.164062 -4.914062 2 -4.78125 C 1.832031 -4.644531 1.75 -4.472656 1.75 -4.265625 C 1.75 -4.085938 1.816406 -3.945312 1.953125 -3.84375 C 2.085938 -3.738281 2.304688 -3.660156 2.609375 -3.609375 L 3.4375 -3.453125 C 4.09375 -3.335938 4.578125 -3.140625 4.890625 -2.859375 C 5.203125 -2.585938 5.359375 -2.21875 5.359375 -1.75 C 5.359375 -1.34375 5.25 -0.992188 5.03125 -0.703125 C 4.820312 -0.410156 4.523438 -0.1875 4.140625 -0.03125 C 3.765625 0.125 3.328125 0.203125 2.828125 0.203125 Z M 2.828125 0.203125 "/></g></g></g><g fill="#ffffff" fill-opacity="1"><g transform="translate(109.765574, 53.594995)"><g><path d="M 0.453125 0 L 0.453125 -5.8125 L 4.53125 -5.8125 L 4.53125 -4.703125 L 1.796875 -4.703125 L 1.796875 -3.46875 L 4.203125 -3.46875 L 4.203125 -2.484375 L 1.796875 -2.484375 L 1.796875 -1.125 L 4.609375 -1.125 L 4.609375 0 Z M 0.453125 0 "/></g></g></g></svg>